<svg width="10" height="12" viewBox="0 0 10 12" fill="none" xmlns="http://www.w3.org/2000/svg">
<path d="M4.19333 9.14C4.25674 9.20069 4.3315 9.24827 4.41333 9.28C4.49313 9.31527 4.57942 9.33349 4.66667 9.33349C4.75391 9.33349 4.8402 9.31527 4.92 9.28C5.00183 9.24827 5.0766 9.20069 5.14 9.14L7.80667 6.47333C7.9322 6.3478 8.00273 6.17753 8.00273 6C8.00273 5.82247 7.9322 5.6522 7.80667 5.52667C7.68113 5.40113 7.51087 5.33061 7.33333 5.33061C7.1558 5.33061 6.98554 5.40113 6.86 5.52667L5.33333 7.06V0.666667C5.33333 0.489856 5.26309 0.320286 5.13807 0.195262C5.01305 0.0702379 4.84348 0 4.66667 0C4.48986 0 4.32029 0.0702379 4.19526 0.195262C4.07024 0.320286 4 0.489856 4 0.666667V7.06L2.47333 5.52667C2.3478 5.40113 2.17753 5.33061 2 5.33061C1.82247 5.33061 1.6522 5.40113 1.52667 5.52667C1.40113 5.6522 1.33061 5.82247 1.33061 6C1.33061 6.08791 1.34792 6.17495 1.38156 6.25617C1.4152 6.33738 1.46451 6.41117 1.52667 6.47333L4.19333 9.14Z" fill="#8593A3"/>
<path d="M8.66667 10.6667H0.666667C0.489856 10.6667 0.320287 10.7369 0.195262 10.8619C0.070238 10.987 0 11.1565 0 11.3333C0 11.5101 0.070238 11.6797 0.195262 11.8047C0.320287 11.9298 0.489856 12 0.666667 12H8.66667C8.84348 12 9.01305 11.9298 9.13807 11.8047C9.2631 11.6797 9.33333 11.5101 9.33333 11.3333C9.33333 11.1565 9.2631 10.987 9.13807 10.8619C9.01305 10.7369 8.84348 10.6667 8.66667 10.6667Z" fill="#8593A3"/>
</svg>
