<svg width="62" height="51" viewBox="0 0 62 51" fill="none" xmlns="http://www.w3.org/2000/svg">
<path d="M49.723 39.0281H45.4001C44.5931 39.0281 43.9367 38.3614 43.9367 37.5418C43.9367 36.7222 44.5931 36.0555 45.4001 36.0555H49.723C54.8752 36.0555 59.07 31.7982 59.07 26.5651C59.07 21.5858 55.3876 17.5009 50.5043 17.0683C49.7838 17.0033 49.217 16.4178 49.169 15.6828C48.7975 9.90989 44.0199 5.38588 38.2881 5.38588C36.7222 5.38588 35.1596 5.72738 33.6418 6.39736C33.1358 6.62177 32.5434 6.53721 32.1176 6.17295C29.6967 4.11421 26.6131 2.97915 23.4333 2.97915C16.0908 2.97915 10.2405 8.80735 10.1124 16.252C10.1028 16.8732 9.70891 17.4261 9.13253 17.631C5.42124 18.9449 2.92997 22.5355 2.92997 26.5619C2.92997 31.7949 7.1536 36.0522 12.3443 36.0522H16.5967C17.4037 36.0522 18.0601 36.719 18.0601 37.5385C18.0601 38.3581 17.4037 39.0249 16.5967 39.0249H12.3443C5.53651 39.0281 0 33.4373 0 26.5619C0 21.6183 2.86592 17.1691 7.23045 15.1917C7.87088 6.59575 14.8067 0 23.4333 0C27.0005 0 30.4716 1.17735 33.3023 3.32715C34.9322 2.71571 36.607 2.40999 38.2913 2.40999C45.1535 2.40999 50.9398 7.52592 51.9645 14.268C57.7668 15.3576 62.0032 20.4442 62.0032 26.5619C62 33.4373 56.4923 39.0281 49.723 39.0281Z" fill="#BB50E0"/>
<path d="M35.0091 51.0001C34.2022 51.0001 33.5457 50.3334 33.5457 49.5138V37.5419C33.5457 36.7223 34.2022 36.0556 35.0091 36.0556H36.5557L31.0352 28.2012L25.5115 36.0523H26.9877C27.7947 36.0523 28.4511 36.7191 28.4511 37.5387V49.5105C28.4511 50.3301 27.7947 50.9968 26.9877 50.9968C26.1808 50.9968 25.5243 50.3301 25.5243 49.5105V39.0282H22.6648C22.1172 39.0282 21.6145 38.716 21.3615 38.2216C21.1118 37.7273 21.1534 37.1289 21.4736 36.6768L29.844 24.7765C30.3948 23.9959 31.6757 23.9959 32.2264 24.7765L40.5936 36.6768C40.9107 37.1321 40.9555 37.7273 40.7057 38.2216C40.456 38.716 39.9532 39.0282 39.4024 39.0282H36.4725V49.5105C36.4725 50.3334 35.8192 51.0001 35.0091 51.0001Z" fill="#8593A3"/>
</svg>
