<svg width="16" height="14" viewBox="0 0 16 14" fill="none" xmlns="http://www.w3.org/2000/svg">
<path d="M1.6 11.6667V8.78889C1.6 8.14458 1.06274 7.62222 0.4 7.62222H0V6.37778H0.4C1.06274 6.37778 1.6 5.85542 1.6 5.21111V2.33333C1.6 1.04467 2.67452 0 4 0H4.8V1.55556H4C3.55818 1.55556 3.2 1.90378 3.2 2.33333V5.52222C3.2 6.21118 2.73926 6.7956 2.10098 7C2.73926 7.2044 3.2 7.78882 3.2 8.47778V11.6667C3.2 12.0962 3.55818 12.4444 4 12.4444H4.8V14H4C2.67452 14 1.6 12.9554 1.6 11.6667ZM14.4 8.78889V11.6667C14.4 12.9554 13.3255 14 12 14H11.2V12.4444H12C12.4418 12.4444 12.8 12.0962 12.8 11.6667V8.47778C12.8 7.78882 13.2607 7.2044 13.899 7C13.2607 6.7956 12.8 6.21118 12.8 5.52222V2.33333C12.8 1.90378 12.4418 1.55556 12 1.55556H11.2V0H12C13.3255 0 14.4 1.04467 14.4 2.33333V5.21111C14.4 5.85542 14.9373 6.37778 15.6 6.37778H16V7.62222H15.6C14.9373 7.62222 14.4 8.14458 14.4 8.78889Z" fill="#14FF00"/>
</svg>
