<svg width="129" height="38" viewBox="0 0 129 38" fill="none" xmlns="http://www.w3.org/2000/svg">
<path d="M16.5591 24.6113C16.5545 24.5646 15.1822 13.8135 14.6925 9.75209C14.6047 9.0285 14.7895 7.55332 15.3024 6.73169C16.901 4.1828 21.0038 0 27.4768 0C31.0667 0 34.3517 1.33047 36.8698 3.53391C38.413 4.88305 38.8426 7.1145 37.9232 8.95381L30.041 24.6627H29.8978L28.9599 11.33C28.8351 9.57002 27.389 8.21155 25.6471 8.21155H25.3561C23.9515 8.21155 22.6902 9.08452 22.1819 10.4057L16.7069 24.6113H16.5591Z" fill="#BB50E0"/>
<path d="M50.4903 23.4816C50.4903 29.2609 45.8516 33.9479 40.1271 33.9479C38.0248 33.9479 36.0612 33.313 34.4256 32.2206C31.8013 35.7359 27.6431 38 22.9535 38C16.6653 38 11.3197 33.9199 9.37453 28.2339C4.11666 27.7344 0 23.2622 0 17.8143C0 14.3924 1.62171 11.358 4.13514 9.44399C5.0592 8.73908 6.28357 8.57102 7.36009 9.00517C8.43661 9.43466 9.21282 10.4057 9.40687 11.5587L12.35 28.7754C12.6503 30.5401 14.1658 31.8238 15.9353 31.8238H15.9399C17.4461 31.8238 18.7999 30.8855 19.3358 29.4617L24.8802 15.2047L25.7072 28.4627C25.8273 30.3533 27.3751 31.8238 29.2509 31.8238C30.5308 31.8238 31.7089 31.1283 32.3419 30.0032L40.4643 15.5035C41.3422 13.9349 43.2919 13.3467 44.8813 14.173C48.2125 15.9189 50.4903 19.4295 50.4903 23.4816Z" fill="#BB50E0"/>
<g clip-path="url(#clip0)">
<path d="M59.1334 2.79413H64.5091V4.4272H61.1425V6.18933H63.6613V7.77276H61.1425V11.158H59.1334V2.79413Z" fill="#BB50E0"/>
<path d="M67.5766 11.158H65.5675V4.51159H67.5766V5.6185C68.0373 4.91365 68.7527 4.43713 69.6348 4.43713V6.5914H69.081C68.1304 6.5914 67.5766 6.92397 67.5766 8.07059V11.158Z" fill="#BB50E0"/>
<path d="M73.5158 11.2523C71.5851 11.2523 70.1983 9.9419 70.1983 7.83231C70.1983 5.72272 71.5606 4.41229 73.5158 4.41229C75.4318 4.41229 76.7843 5.6979 76.7843 7.7231C76.7843 7.91173 76.7745 8.11524 76.75 8.31875H72.1976C72.2662 9.18741 72.7955 9.59443 73.4423 9.59443C74.0058 9.59443 74.3244 9.30654 74.491 8.94915H76.6324C76.3139 10.2546 75.1525 11.2523 73.5158 11.2523ZM72.2123 7.19198H74.7311C74.7311 6.46728 74.1676 6.05033 73.4962 6.05033C72.8347 6.04536 72.3299 6.45239 72.2123 7.19198Z" fill="#BB50E0"/>
<path d="M80.7585 11.2523C78.8278 11.2523 77.441 9.9419 77.441 7.83231C77.441 5.72272 78.8033 4.41229 80.7585 4.41229C82.6745 4.41229 84.027 5.6979 84.027 7.7231C84.027 7.91173 84.0172 8.11524 83.9927 8.31875H79.4403C79.5089 9.18741 80.0381 9.59443 80.685 9.59443C81.2485 9.59443 81.567 9.30654 81.7336 8.94915H83.8751C83.5615 10.2546 82.3952 11.2523 80.7585 11.2523ZM79.455 7.19198H81.9738C81.9738 6.46728 81.4102 6.05033 80.7389 6.05033C80.0773 6.04536 79.5726 6.45239 79.455 7.19198Z" fill="#BB50E0"/>
<path d="M58.8129 14.8981H60.9642L62.15 20.9886L63.6201 14.8981H65.8302L67.2415 20.9886L68.442 14.8981H70.608L68.4567 23.262H66.0213L64.7031 17.7572L63.3408 23.262H60.9054L58.8129 14.8981Z" fill="#060011"/>
<path d="M74.6066 23.3563C72.6759 23.3563 71.2205 22.0459 71.2205 19.9363C71.2205 17.8267 72.7151 16.5163 74.6311 16.5163C76.5619 16.5163 78.0417 17.8267 78.0417 19.9363C78.0417 22.0459 76.5374 23.3563 74.6066 23.3563ZM74.6066 21.5942C75.3221 21.5942 75.9934 21.0581 75.9934 19.9363C75.9934 18.8046 75.3368 18.2784 74.6311 18.2784C73.901 18.2784 73.2688 18.8046 73.2688 19.9363C73.2688 21.0581 73.8765 21.5942 74.6066 21.5942Z" fill="#060011"/>
<path d="M81.1241 23.262H79.1149V16.6156H81.1241V17.7225C81.5847 17.0176 82.3001 16.5411 83.1822 16.5411V18.6954H82.6285C81.6778 18.6954 81.1241 19.0279 81.1241 20.1746V23.262Z" fill="#060011"/>
<path d="M86.6368 16.5163C87.5091 16.5163 88.2589 16.9233 88.6607 17.5289V14.4464H90.6698V23.262H88.6607V22.309C88.2981 22.9145 87.6022 23.3563 86.6368 23.3563C85.0246 23.3563 83.7457 22.0211 83.7457 19.9264C83.7457 17.8317 85.0295 16.5163 86.6368 16.5163ZM87.2249 18.2933C86.4702 18.2933 85.7891 18.8641 85.7891 19.9264C85.7891 20.9886 86.4702 21.5843 87.2249 21.5843C87.9893 21.5843 88.6607 20.9985 88.6607 19.9413C88.6607 18.879 87.9893 18.2933 87.2249 18.2933Z" fill="#060011"/>
<path d="M98.4368 14.8038C100.402 14.8038 101.882 15.9256 102.352 17.7324H100.142C99.7991 17.0176 99.1768 16.6602 98.4123 16.6602C97.1774 16.6602 96.3297 17.5885 96.3297 19.0677C96.3297 20.5468 97.1774 21.4751 98.4123 21.4751C99.1768 21.4751 99.7991 21.1177 100.142 20.4029H102.352C101.882 22.2147 100.402 23.3216 98.4368 23.3216C96.0014 23.3216 94.2863 21.5694 94.2863 19.0677C94.2814 16.5659 96.0014 14.8038 98.4368 14.8038Z" fill="#060011"/>
<path d="M103.587 14.4464H105.596V23.262H103.587V14.4464Z" fill="#060011"/>
<path d="M110.041 23.3563C108.11 23.3563 106.655 22.0459 106.655 19.9363C106.655 17.8267 108.149 16.5163 110.065 16.5163C111.996 16.5163 113.476 17.8267 113.476 19.9363C113.476 22.0459 111.971 23.3563 110.041 23.3563ZM110.041 21.5942C110.756 21.5942 111.428 21.0581 111.428 19.9363C111.428 18.8046 110.771 18.2784 110.065 18.2784C109.335 18.2784 108.703 18.8046 108.703 19.9363C108.703 21.0581 109.315 21.5942 110.041 21.5942Z" fill="#060011"/>
<path d="M121.027 23.262H119.018V22.3586C118.616 22.9294 117.911 23.3364 117.029 23.3364C115.509 23.3364 114.49 22.2742 114.49 20.5021V16.6155H116.49V20.2242C116.49 21.1276 116.994 21.6289 117.749 21.6289C118.523 21.6289 119.018 21.1276 119.018 20.2242V16.6155H121.027V23.262Z" fill="#060011"/>
<path d="M124.967 16.5163C125.839 16.5163 126.589 16.9233 126.991 17.5289V14.4464H129V23.262H126.991V22.309C126.628 22.9145 125.932 23.3563 124.967 23.3563C123.355 23.3563 122.076 22.0211 122.076 19.9264C122.076 17.8317 123.355 16.5163 124.967 16.5163ZM125.555 18.2933C124.8 18.2933 124.119 18.8641 124.119 19.9264C124.119 20.9886 124.8 21.5843 125.555 21.5843C126.32 21.5843 126.991 20.9985 126.991 19.9413C126.991 18.879 126.32 18.2933 125.555 18.2933Z" fill="#060011"/>
<path d="M66.8543 29.4861H64.6296C64.3258 28.9252 63.7573 28.6274 63.0076 28.6274C61.7139 28.6274 60.8564 29.5556 60.8564 31.01C60.8564 32.5587 61.7286 33.4621 63.1742 33.4621C64.1739 33.4621 64.8697 32.926 65.1735 31.9829H62.6205V30.4838H66.9964V32.38C66.575 33.8194 65.198 35.2639 63.0223 35.2639C60.5525 35.2639 58.8129 33.5117 58.8129 31.01C58.8129 28.5083 60.5427 26.7461 63.0125 26.7461C64.9824 26.7461 66.4182 27.7736 66.8543 29.4861Z" fill="#060011"/>
<path d="M71.0294 35.2986C69.0987 35.2986 67.7119 33.9882 67.7119 31.8786C67.7119 29.769 69.0742 28.4586 71.0294 28.4586C72.9454 28.4586 74.2979 29.7442 74.2979 31.7694C74.2979 31.958 74.2881 32.1615 74.2636 32.365H69.7112C69.7798 33.2337 70.3091 33.6407 70.9559 33.6407C71.5195 33.6407 71.838 33.3528 72.0046 32.9954H74.146C73.8275 34.3009 72.6612 35.2986 71.0294 35.2986ZM69.721 31.2383H72.2398C72.2398 30.5136 71.6763 30.0966 71.0049 30.0966C70.3483 30.0966 69.8386 30.4987 69.721 31.2383Z" fill="#060011"/>
<path d="M79.8843 31.5957C79.8843 30.6923 79.3893 30.191 78.6249 30.191C77.8604 30.191 77.3655 30.6923 77.3655 31.5957V35.2043H75.3564V28.5579H77.3655V29.4414C77.7673 28.8805 78.473 28.4884 79.355 28.4884C80.8741 28.4884 81.8836 29.5358 81.8836 31.3227V35.2043H79.8843V31.5957Z" fill="#060011"/>
<path d="M86.2007 35.2986C84.27 35.2986 82.8832 33.9882 82.8832 31.8786C82.8832 29.769 84.2455 28.4586 86.2007 28.4586C88.1168 28.4586 89.4692 29.7442 89.4692 31.7694C89.4692 31.958 89.4594 32.1615 89.4349 32.365H84.8826C84.9512 33.2337 85.4804 33.6407 86.1272 33.6407C86.6908 33.6407 87.0093 33.3528 87.1759 32.9954H89.3173C88.9988 34.3009 87.8325 35.2986 86.2007 35.2986ZM84.8924 31.2383H87.4111C87.4111 30.5136 86.8476 30.0966 86.1762 30.0966C85.5196 30.0966 85.01 30.4987 84.8924 31.2383Z" fill="#060011"/>
<path d="M92.5368 35.2043H90.5277V28.5579H92.5368V29.6648C92.9975 28.9599 93.7129 28.4834 94.595 28.4834V30.6377H94.0461C93.0955 30.6377 92.5417 30.9702 92.5417 32.1169V35.2043H92.5368Z" fill="#060011"/>
<path d="M98.0546 28.4636C99.0297 28.4636 99.7256 28.9153 100.078 29.501V28.5579H102.088V35.2044H100.078V34.2613C99.7158 34.847 99.0199 35.2987 98.0448 35.2987C96.4473 35.2987 95.1634 33.9634 95.1634 31.8687C95.1634 29.774 96.4424 28.4636 98.0546 28.4636ZM98.6426 30.2357C97.888 30.2357 97.2068 30.8065 97.2068 31.8687C97.2068 32.931 97.888 33.5266 98.6426 33.5266C99.4071 33.5266 100.078 32.9409 100.078 31.8836C100.078 30.8214 99.4071 30.2357 98.6426 30.2357Z" fill="#060011"/>
<path d="M103.866 30.2505H103.063V28.5579H103.861V26.9397H105.871V28.5579H107.189V30.2505H105.871V32.921C105.871 33.3131 106.037 33.4819 106.483 33.4819H107.199V35.2093H106.174C104.812 35.2093 103.857 34.6236 103.857 32.8962V30.2505H103.866Z" fill="#060011"/>
<path d="M111.31 35.2986C109.379 35.2986 107.924 33.9882 107.924 31.8786C107.924 29.769 109.418 28.4586 111.334 28.4586C113.265 28.4586 114.745 29.769 114.745 31.8786C114.745 33.9882 113.236 35.2986 111.31 35.2986ZM111.31 33.5365C112.025 33.5365 112.697 33.0004 112.697 31.8786C112.697 30.7469 112.04 30.2207 111.334 30.2207C110.604 30.2207 109.972 30.7469 109.972 31.8786C109.967 33.0004 110.58 33.5365 111.31 33.5365Z" fill="#060011"/>
<path d="M117.822 35.2043H115.813V28.5579H117.822V29.6648C118.283 28.9599 118.998 28.4834 119.881 28.4834V30.6377H119.327C118.376 30.6377 117.822 30.9702 117.822 32.1169V35.2043Z" fill="#060011"/>
</g>
<defs>
<clipPath id="clip0">
<rect width="70.1871" height="32.6912" fill="white" transform="translate(58.8129 2.79413)"/>
</clipPath>
</defs>
</svg>
